<mxfile host="app.diagrams.net" agent="Mozilla/5.0 (Macintosh; Intel Mac OS X 10_15_7) AppleWebKit/537.36 (KHTML, like Gecko) Chrome/136.0.0.0 Safari/537.36" version="27.1.4">
  <diagram name="Page-1" id="RUpEqRjJZRypiCYYh40I">
    <mxGraphModel dx="1989" dy="615" grid="1" gridSize="10" guides="1" tooltips="1" connect="1" arrows="1" fold="1" page="1" pageScale="1" pageWidth="827" pageHeight="1169" math="0" shadow="0">
      <root>
        <mxCell id="0" />
        <mxCell id="1" parent="0" />
        <mxCell id="DL6gzxUmZVlFvg-6hXAw-2" value="" style="shape=image;verticalLabelPosition=bottom;labelBackgroundColor=default;verticalAlign=top;aspect=fixed;imageAspect=0;image=https://media.geeksforgeeks.org/wp-content/cdn-uploads/20190717114649/Object-Oriented-Programming-Concepts.jpg;" vertex="1" parent="1">
          <mxGeometry x="210" y="160" width="371" height="371" as="geometry" />
        </mxCell>
        <mxCell id="DL6gzxUmZVlFvg-6hXAw-3" value="" style="endArrow=classic;html=1;rounded=0;fillColor=#f0a30a;strokeColor=#BD7000;" edge="1" parent="1">
          <mxGeometry width="50" height="50" relative="1" as="geometry">
            <mxPoint x="350" y="180" as="sourcePoint" />
            <mxPoint x="340" y="70" as="targetPoint" />
            <Array as="points">
              <mxPoint x="350" y="190" />
            </Array>
          </mxGeometry>
        </mxCell>
        <mxCell id="DL6gzxUmZVlFvg-6hXAw-4" value="" style="endArrow=classic;html=1;rounded=0;fillColor=#d80073;strokeColor=#A50040;" edge="1" parent="1">
          <mxGeometry width="50" height="50" relative="1" as="geometry">
            <mxPoint x="470" y="190" as="sourcePoint" />
            <mxPoint x="510" y="80" as="targetPoint" />
          </mxGeometry>
        </mxCell>
        <mxCell id="DL6gzxUmZVlFvg-6hXAw-7" value="" style="endArrow=classic;html=1;rounded=0;fillColor=#a20025;strokeColor=#6F0000;" edge="1" parent="1">
          <mxGeometry width="50" height="50" relative="1" as="geometry">
            <mxPoint x="560" y="350" as="sourcePoint" />
            <mxPoint x="640" y="290" as="targetPoint" />
          </mxGeometry>
        </mxCell>
        <mxCell id="DL6gzxUmZVlFvg-6hXAw-10" value="" style="endArrow=classic;html=1;rounded=0;fillColor=#1ba1e2;strokeColor=#006EAF;" edge="1" parent="1">
          <mxGeometry width="50" height="50" relative="1" as="geometry">
            <mxPoint x="510" y="470" as="sourcePoint" />
            <mxPoint x="630" y="510" as="targetPoint" />
          </mxGeometry>
        </mxCell>
        <mxCell id="DL6gzxUmZVlFvg-6hXAw-11" value="" style="endArrow=classic;html=1;rounded=0;fillColor=#d80073;strokeColor=#A50040;" edge="1" parent="1">
          <mxGeometry width="50" height="50" relative="1" as="geometry">
            <mxPoint x="300" y="480" as="sourcePoint" />
            <mxPoint x="130" y="520" as="targetPoint" />
          </mxGeometry>
        </mxCell>
        <mxCell id="DL6gzxUmZVlFvg-6hXAw-12" value="" style="endArrow=classic;html=1;rounded=0;fillColor=#ffcccc;strokeColor=#36393d;" edge="1" parent="1">
          <mxGeometry width="50" height="50" relative="1" as="geometry">
            <mxPoint x="240" y="330" as="sourcePoint" />
            <mxPoint x="100" y="250" as="targetPoint" />
          </mxGeometry>
        </mxCell>
        <mxCell id="DL6gzxUmZVlFvg-6hXAw-13" value="Abstraction hides implementation details&lt;div&gt;&amp;nbsp;and exposes only essential features&lt;/div&gt;" style="text;html=1;align=center;verticalAlign=middle;resizable=0;points=[];autosize=1;strokeColor=none;fillColor=none;" vertex="1" parent="1">
          <mxGeometry x="-70" y="213" width="240" height="40" as="geometry" />
        </mxCell>
        <mxCell id="DL6gzxUmZVlFvg-6hXAw-14" value="Polymorphism allows&amp;nbsp;&lt;div&gt;methods to take different forms.&lt;/div&gt;" style="text;html=1;align=center;verticalAlign=middle;resizable=0;points=[];autosize=1;strokeColor=none;fillColor=none;" vertex="1" parent="1">
          <mxGeometry x="205" y="23" width="190" height="40" as="geometry" />
        </mxCell>
        <mxCell id="DL6gzxUmZVlFvg-6hXAw-15" value="Inheritance allows a child class to reuse&lt;div&gt;&amp;nbsp;the properties and methods of a parent class.&lt;/div&gt;" style="text;html=1;align=center;verticalAlign=middle;resizable=0;points=[];autosize=1;strokeColor=none;fillColor=none;" vertex="1" parent="1">
          <mxGeometry x="410" y="43" width="270" height="40" as="geometry" />
        </mxCell>
        <mxCell id="DL6gzxUmZVlFvg-6hXAw-16" value="Encapsulation hides internal details and provides&amp;nbsp;&lt;div&gt;controlled access using getters and setters.&lt;/div&gt;" style="text;html=1;align=center;verticalAlign=middle;resizable=0;points=[];autosize=1;strokeColor=none;fillColor=none;" vertex="1" parent="1">
          <mxGeometry x="600" y="240" width="290" height="40" as="geometry" />
        </mxCell>
        <mxCell id="DL6gzxUmZVlFvg-6hXAw-17" value="A class is a blueprint&lt;span style=&quot;background-color: transparent; color: light-dark(rgb(0, 0, 0), rgb(255, 255, 255));&quot;&gt;.&lt;/span&gt;" style="text;html=1;align=center;verticalAlign=middle;resizable=0;points=[];autosize=1;strokeColor=none;fillColor=none;" vertex="1" parent="1">
          <mxGeometry x="-10" y="508" width="140" height="30" as="geometry" />
        </mxCell>
        <mxCell id="DL6gzxUmZVlFvg-6hXAw-18" value="an object is an instance of the class" style="text;html=1;align=center;verticalAlign=middle;resizable=0;points=[];autosize=1;strokeColor=none;fillColor=none;" vertex="1" parent="1">
          <mxGeometry x="600" y="508" width="210" height="30" as="geometry" />
        </mxCell>
      </root>
    </mxGraphModel>
  </diagram>
</mxfile>
